<?xml version="1.0" encoding="UTF-8"?><svg id="a" xmlns="http://www.w3.org/2000/svg" xmlns:xlink="http://www.w3.org/1999/xlink" viewBox="0 0 250 250"><defs><clipPath id="b"><path d="m175,0h-100C33.58,0,0,33.58,0,75v100c0,41.42,33.58,75,75,75h100c41.42,0,75-33.58,75-75v-100C250,33.58,216.42,0,175,0h0Z" style="fill:none; stroke-width:0px;"/></clipPath></defs><g style="clip-path:url(#b);"><polygon points="250 0 250 250 0 250 250 0" style="fill:#242c3d; stroke-width:0px;"/><polygon points="0 0 250 0 0 250 0 0" style="fill:#11151d; stroke-width:0px;"/></g><path d="m165,45c22.06,0,40,17.94,40,40v80c0,22.06-17.94,40-40,40h-80c-22.06,0-40-17.94-40-40v-80c0-22.06,17.94-40,40-40h80m0-20h-80c-33.14,0-60,26.86-60,60v80c0,33.14,26.86,60,60,60h80c33.14,0,60-26.86,60-60v-80c0-33.14-26.86-60-60-60h0Z" style="fill:#f5f5f5; stroke-width:0px;"/><path d="m60.53,86.72c-4.69-4.69-4.69-12.28,0-16.97s12.28-4.69,16.97,0l18.38,18.38c14.82,14.82,14.82,38.92,0,53.74l-18.38,18.38c-4.69,4.69-12.28,4.69-16.97,0s-4.69-12.28,0-16.97l18.38-18.38c5.46-5.46,5.46-14.34,0-19.8l-18.38-18.38Z" style="fill:#f5f5f5; stroke-width:0px;"/><path d="m147,153h-44c-5.52,0-10,4.48-10,10s4.48,10,10,10h44c5.52,0,10-4.48,10-10s-4.48-10-10-10Z" style="fill:#f5f5f5; stroke-width:0px;"/><path d="m167,89c-14.36,0-26,11.64-26,26s11.64,26,26,26,26-11.64,26-26-11.64-26-26-26Zm0,38c-6.62,0-12-5.38-12-12s5.38-12,12-12,12,5.38,12,12-5.38,12-12,12Z" style="fill:#f5f5f5; stroke-width:0px;"/></svg>